<?xml version="1.0" standalone="no"?>
<!DOCTYPE svg PUBLIC "-//W3C//DTD SVG 20010904//EN"
 "http://www.w3.org/TR/2001/REC-SVG-20010904/DTD/svg10.dtd">
<svg version="1.0" xmlns="http://www.w3.org/2000/svg"
 width="60.000000pt" height="60.000000pt" viewBox="0 0 60.000000 60.000000"
 preserveAspectRatio="xMidYMid meet">
<metadata>
Created by potrace 1.16, written by Peter Selinger 2001-2019
</metadata>
<g transform="translate(0.000000,60.000000) scale(0.100000,-0.100000)"
fill="#000000" stroke="none">
<path d="M124 433 c-44 -8 -72 -71 -53 -120 13 -35 64 -57 102 -43 28 9 34 8
50 -11 17 -21 23 -22 140 -16 67 3 133 10 147 16 14 5 19 10 13 10 -7 1 -13 9
-13 19 0 14 2 15 10 2 8 -12 10 -11 10 8 0 32 -20 27 -33 -8 -9 -23 -18 -30
-37 -30 -45 0 -68 11 -75 37 -7 30 -26 26 -43 -10 -7 -15 -18 -27 -25 -27 -7
0 -23 -3 -36 -7 -17 -4 -22 -3 -17 5 4 7 18 12 32 12 13 0 24 5 24 10 0 6 -25
10 -55 10 -30 0 -55 5 -55 10 0 6 18 10 40 10 22 0 40 5 40 10 0 6 -16 10 -35
10 -19 0 -35 5 -35 10 0 6 4 10 9 10 15 0 1 37 -22 58 -25 23 -53 31 -83 25z"/>
</g>
</svg>
