<svg width="176" height="176" viewBox="0 0 176 176" fill="none" xmlns="http://www.w3.org/2000/svg">
<rect width="176" height="176" fill="#F5F5F5"/>
<circle cx="88" cy="88" r="88" fill="url(#paint0_radial_0_1)"/>
<path d="M70.397 117.918C68.153 117.918 66.623 116.898 65.807 114.858L39.491 45.6C40.035 45.328 40.681 45.124 41.429 44.988C42.177 44.784 42.857 44.682 43.469 44.682C45.373 44.682 46.971 45.158 48.263 46.11C49.623 46.994 50.609 48.252 51.221 49.884L69.887 102.006L68.051 107.208L68.867 107.514L89.573 49.884C90.185 48.252 91.171 46.994 92.531 46.11C93.891 45.158 95.523 44.682 97.427 44.682C98.583 44.682 99.909 44.988 101.405 45.6L75.089 114.858C74.749 115.81 74.171 116.558 73.355 117.102C72.539 117.646 71.553 117.918 70.397 117.918Z" fill="#E21D1D"/>
<path d="M105.28 141.472C99.5683 141.472 94.6043 140.656 90.3883 139.024C86.2403 137.392 83.0783 135.216 80.9023 132.496C78.7263 129.776 77.6383 126.852 77.6383 123.724C77.6383 121.14 78.3183 119.168 79.6783 117.808C81.0383 116.38 83.1123 115.666 85.9003 115.666C85.9003 121.446 87.6343 125.866 91.1023 128.926C94.5703 131.918 99.4323 133.414 105.688 133.414C111.672 133.414 116.262 132.428 119.458 130.456C122.654 128.416 124.252 125.424 124.252 121.48C124.252 119.1 123.64 117.162 122.416 115.666C121.26 114.102 119.254 112.776 116.398 111.688C113.61 110.532 109.564 109.376 104.26 108.22C98.0043 106.86 93.0403 105.296 89.3683 103.528C85.6963 101.692 83.0103 99.4821 81.3103 96.8981C79.6103 94.3141 78.7603 91.1181 78.7603 87.3101C78.7603 83.5021 79.8143 80.1701 81.9223 77.3141C84.0983 74.3901 87.1583 72.1461 91.1023 70.5821C95.0463 69.0181 99.6363 68.2361 104.872 68.2361C109.836 68.2361 114.256 68.9501 118.132 70.3781C122.076 71.7381 125.136 73.7101 127.312 76.2941C129.556 78.8101 130.678 81.6661 130.678 84.8621C130.678 86.8341 130.032 88.3981 128.74 89.5541C127.516 90.6421 125.578 91.1861 122.926 91.1861C122.178 86.0181 120.342 82.2441 117.418 79.8641C114.562 77.4841 110.38 76.2941 104.872 76.2941C99.5683 76.2941 95.4883 77.2461 92.6323 79.1501C89.7763 80.9861 88.3483 83.6041 88.3483 87.0041C88.3483 89.3841 88.8583 91.3561 89.8783 92.9201C90.9663 94.4161 92.7683 95.7081 95.2843 96.7961C97.8683 97.8841 101.472 98.9381 106.096 99.9581C113.032 101.454 118.472 103.12 122.416 104.956C126.428 106.792 129.318 109.036 131.086 111.688C132.854 114.34 133.738 117.604 133.738 121.48C133.738 127.668 131.154 132.564 125.986 136.168C120.818 139.704 113.916 141.472 105.28 141.472Z" fill="#FCFCFC"/>
<defs>
<radialGradient id="paint0_radial_0_1" cx="0" cy="0" r="1" gradientUnits="userSpaceOnUse" gradientTransform="translate(88 88) rotate(90) scale(88)">
<stop stop-color="#2927E6"/>
<stop offset="1" stop-color="#4A4991"/>
</radialGradient>
</defs>
</svg>
